/* XPM */
static char *result[] = {
/* columns rows colors chars-per-pixel */
"32 32 203 2 ",
"   c #A5357A",
".  c #A5357B",
"X  c #A6357A",
"o  c #A6357B",
"O  c #A6367A",
"+  c #A7367A",
"@  c #A6367B",
"#  c #A7367C",
"$  c #A8367C",
"%  c #A9367C",
"&  c #A8367D",
"*  c #A9367D",
"=  c #AA367D",
"-  c #AA377D",
";  c #AA377E",
":  c #AB377E",
">  c #AB377F",
",  c #AC377E",
"<  c #AC377F",
"1  c #AB3F78",
"2  c #AE4577",
"3  c #AF4876",
"4  c #AB4078",
"5  c #BA5F72",
"6  c #BF6A6F",
"7  c #BB6171",
"8  c #C16C6F",
"9  c #C5756D",
"0  c #C6776D",
"q  c #C9806A",
"w  c #CA816A",
"e  c #CB816A",
"r  c #CF8B68",
"t  c #CF8A69",
"y  c #ED9F76",
"u  c #EC977B",
"i  c #EEAB6F",
"p  c #EEAD6E",
"a  c #EEAC6F",
"s  c #EFAE6E",
"d  c #EFBA67",
"f  c #EFB769",
"g  c #EFB46B",
"h  c #EFB26C",
"j  c #EFB968",
"k  c #EFB869",
"l  c #F0BB67",
"z  c #F1BB67",
"x  c #F1BD65",
"c  c #F0BF65",
"v  c #F0BC67",
"b  c #F1BE66",
"n  c #F0B669",
"m  c #F0B968",
"M  c #EDA572",
"N  c #EDA672",
"B  c #EDA772",
"V  c #EDA673",
"C  c #EDA474",
"Z  c #EEA970",
"A  c #EEA971",
"S  c #F2C95F",
"D  c #F1CA5E",
"F  c #F1CA5F",
"G  c #F2CA5E",
"H  c #F2CB5F",
"J  c #F2CC5D",
"K  c #F2CE5C",
"L  c #F3CF5C",
"P  c #F2CF5D",
"I  c #F2CD5E",
"U  c #F3D359",
"Y  c #F3D05B",
"T  c #F2D15B",
"R  c #F3D15B",
"E  c #F3D25A",
"W  c #F3D35A",
"Q  c #F4D359",
"!  c #F4D35A",
"~  c #F3D558",
"^  c #F3D459",
"/  c #F3D559",
"(  c #F3D658",
")  c #F3D758",
"_  c #F3D659",
"`  c #F3D759",
"'  c #F4D658",
"]  c #F4D758",
"[  c #F4D659",
"{  c #F4D759",
"}  c #F4D45A",
"|  c #F3D05C",
" . c #F2C661",
".. c #F1C462",
"X. c #F1C064",
"o. c #F0C065",
"O. c #F2C860",
"+. c #F2C960",
"@. c #AD3780",
"#. c #AE3780",
"$. c #B53A86",
"%. c #B63A86",
"&. c #B73A87",
"*. c #B83B87",
"=. c #BC3C8B",
"-. c #BD3C8B",
";. c #BE3C8B",
":. c #BD3C8C",
">. c #BD3D8C",
",. c #BE3C8C",
"<. c #BE3D8C",
"1. c #BF3C8D",
"2. c #BF3D8D",
"3. c #BF3C8E",
"4. c #BF3D8E",
"5. c #C03D8D",
"6. c #C23D8F",
"7. c #C23E8F",
"8. c #C33F90",
"9. c #C43E90",
"0. c #D04299",
"q. c #D0429A",
"w. c #D1429A",
"e. c #D1439A",
"r. c #D1439B",
"t. c #D2439B",
"y. c #D3439B",
"u. c #D3439C",
"i. c #D4439C",
"p. c #D4439D",
"a. c #D5439D",
"s. c #D5449D",
"d. c #D7449F",
"f. c #E2539F",
"g. c #E3559E",
"h. c #E3549F",
"j. c #E45B9B",
"k. c #E35C9B",
"l. c #E45F9A",
"z. c #E3599C",
"x. c #E2589D",
"c. c #E3599D",
"v. c #E7738D",
"b. c #E6708F",
"n. c #E6738E",
"m. c #E7738E",
"M. c #E7748D",
"N. c #E7768D",
"B. c #E8798A",
"V. c #E87C89",
"C. c #E87D89",
"Z. c #E87F88",
"A. c #E87C8A",
"S. c #E56396",
"D. c #E56695",
"F. c #E56596",
"G. c #E46497",
"H. c #E56696",
"J. c #E56A93",
"K. c #E46098",
"L. c #E46198",
"P. c #E46099",
"I. c #D944A0",
"U. c #D845A0",
"Y. c #D945A0",
"T. c #D945A1",
"R. c #DB45A1",
"E. c #DA45A2",
"W. c #DC45A2",
"Q. c #DC45A3",
"!. c #DC46A2",
"~. c #DC46A3",
"^. c #DD46A3",
"/. c #E047A5",
"(. c #E147A5",
"). c #E047A6",
"_. c #E147A6",
"`. c #E14BA3",
"'. c #E24CA3",
"]. c #E24DA3",
"[. c #E14EA3",
"{. c #E24EA2",
"}. c #E149A4",
"|. c #E048A5",
" X c #E148A5",
".X c #E149A5",
"XX c #E14AA5",
"oX c #E048A6",
"OX c #E148A6",
"+X c #E251A0",
"@X c #E250A1",
"#X c #E251A1",
"$X c #E252A0",
"%X c #E353A0",
"&X c #E250A2",
"*X c #E98683",
"=X c #E98783",
"-X c #E98087",
";X c #E98584",
":X c #E88485",
">X c #E98784",
",X c #E88088",
"<X c None",
/* pixels */
"<X<X<X<X<X<X<X<X<X<X<X<XX X X o X X O   <X<X<X<X<X<X<X<X<X<X<X<X",
"<X<X<X<X<X<X<X<X<XX X . : *.3.8.9.4.&.> X o @ <X<X<X<X<X<X<X<X<X",
"<X<X<X<X<X<X<XX X % 2.s.OX_._.)._.)._.(.s.5.* o o <X<X<X<X<X<X<X",
"<X<X<X<X<X<XX + ,.!.).).(.)./._._._.)._._./.^.2.@ o <X<X<X<X<X<X",
"<X<X<X<X<XO : e.(.)._.(._.OXx.D.J.k..XOX).)._._.y., X <X<X<X<X<X",
"<X<X<X<X@ @.I._.)._._.b.N J ' [ ' ' K A v. X_._._.T.#.X <X<X<X<X",
"<X<X<XX : Y._._._.L.f ] ' ' ] ' ' ) ( _ ' z H.).).).T.> X <X<X<X",
"<X<X<XO q.)._.).C.R ] ' ] ' ` ' ' ( ' [ ( ' ! -X)././.t.o o <X<X",
"<X<Xo -._.OX_.C.~ ( ' ( ' ( ( ) ' ] [ ' ) ' ( ( Z._.(._.2.X <X<X",
"<XX $ W._._.P.E ( ( ' ' ( ' { ' ) [ [ ] _ ] ' ( ! F.)._.~.% X <X",
"<XX -.)._.|.n ' ] ( ] ' O.g K ( ' P i m ) ' [ [ ' x XX_._.1.X <X",
"<XX u.).OXM.' ' ' ' ' _ l._.&XB k h._.+XS ' ) ' ] ( B.)._.a.X <X",
"X 4 D H G Y ( _ ( ' ) ( +.K._..X{._.+Xl ' ] ' ' ' ] Y F S S 3 X ",
"O 7 ( ' ] _ ' ) ] ' | A.#X'.OX_._.OX.X[.n.O.) ' ] _ ` ) ] ( 8 X ",
"  0 ' ' ' ( ] ( ) ' ,X).(._.(._.).)._._._.S.' [ ' ] _ ( ' ' e X ",
"o w ( _ _ ( ( { ] [ h V =X/.)._._._._.m.Z i ' _ ' ' ( ' ( ' r X ",
"X w ( ' ' ' ` ] [ ' ( / z._.].$X Xz.)..X .) ' ' ) ) ' ' ( ] t o ",
"X 9 ' [ _ ( { _ ) ] ' c (. XZ P.oXb @X_.y ' ' ( ' ' ' ' ' ' q o ",
"X 5 ( ] [ ( ' ) ' ' ( .._.u ' j.)./ s }.M ' ' ' ' ' ' ( ' ( 6   ",
"X 1 E Q R U _ ) ' ` ] ) C ( ' c.OXR ( Z K ( ( ] ( ' ^ Y L K 2 o ",
"<X. t._._.n.' ' ( ( ) ' ' ( ( g._.I ' _ ' [ _ ' ' ( V._.).p.X <X",
"<X  -.).OX|.v ' ' ' [ ' ' ' ' f.).+.' ( ' ' ` { ' X.}.OXoX2.X <X",
"<XX # E.)._.D.^ ( ' ' ] ' _ ( #X_...' _ _ ( ( ( } J./._.W.$ X <X",
"<X<XX =._.)._.:X( ' ) ( ( ] [ {.OXo.' ( ( ( ) ( >X)._.).>.O <X<X",
"<X<X<Xo 0._._._.;X^ [ ' ' ' ' `._.v _ ' ' ) W *X).).oXr.o o <X<X",
"<X<X<Xo - d._._._.G.d ( ' ( ' oX_.m [ ( ( j S.(._.).U.: X <X<X<X",
"<X<X<X<XX < d.oX_.). XN.p Y W _.).f T a m.(.)._._.U.@.X <X<X<X<X",
"<X<X<X<X<Xo - q._.).).)._.OX%X_._.#X.X_.)._._._.w.; X <X<X<X<X<X",
"<X<X<X<X<X<XX X -.R.oX_._._.)._.OX_._.).OX).Q.<.X   <X<X<X<X<X<X",
"<X<X<X<X<X<X<X<XX $ ;.u./._.)._._._.OX_.i.<.& O X <X<X<X<X<X<X<X",
"<X<X<X<X<X<X<X<X<X. X   - $.:.6.7.<.%.= X X o <X<X<X<X<X<X<X<X<X",
"<X<X<X<X<X<X<X<X<X<X<X<XX O o X X . X o <X<X<X<X<X<X<X<X<X<X<X<X"
};
