/* XPM */
static char *result[] = {
/* columns rows colors chars-per-pixel */
"16 16 114 2 ",
"   c #A5357A",
".  c #A6357A",
"X  c #A6357B",
"o  c #A7357B",
"O  c #A6367A",
"+  c #A8367C",
"@  c #A9367C",
"#  c #AB377F",
"$  c #AC367E",
"%  c #AD377F",
"&  c #AE4577",
"*  c #AE4677",
"=  c #B04976",
"-  c #B04B76",
";  c #B75A72",
":  c #B85A72",
">  c #B95E71",
",  c #BA5F72",
"<  c #EC9D77",
"1  c #EB967B",
"2  c #EB937D",
"3  c #EB907F",
"4  c #EB9B78",
"5  c #EC987A",
"6  c #EC9C78",
"7  c #EEAC6F",
"8  c #F0BA67",
"9  c #F0BE65",
"0  c #EEA772",
"q  c #F3CF5B",
"w  c #F3CE5C",
"e  c #F2CF5C",
"r  c #F3CF5C",
"t  c #F2CE5D",
"y  c #F3D15A",
"u  c #F2D05B",
"i  c #F3D15B",
"p  c #F3D25A",
"a  c #F3D25B",
"s  c #F4D35A",
"d  c #F3D459",
"f  c #F3D658",
"g  c #F3D758",
"h  c #F3D659",
"j  c #F3D759",
"k  c #F4D459",
"l  c #F4D559",
"z  c #F4D658",
"x  c #F4D758",
"c  c #F4D659",
"v  c #F4D759",
"b  c #F2D05C",
"n  c #F3D05C",
"m  c #F1C462",
"M  c #F2C860",
"N  c #AC3780",
"B  c #B33984",
"V  c #B33A84",
"C  c #B43985",
"Z  c #B93B88",
"A  c #BA3B89",
"S  c #BB3B89",
"D  c #BA3B8A",
"F  c #BB3C89",
"G  c #CD4197",
"H  c #CE4197",
"J  c #CD4297",
"K  c #CE4198",
"L  c #CE4298",
"P  c #D4439D",
"I  c #D5439D",
"U  c #D6439E",
"Y  c #D4449C",
"T  c #D5449D",
"R  c #D5449E",
"E  c #D6449E",
"W  c #E3529F",
"Q  c #E3539F",
"!  c #E2579D",
"~  c #E3559E",
"^  c #E2549F",
"/  c #E3549F",
"(  c #E87F87",
")  c #E6718F",
"_  c #E87D89",
"`  c #E87F88",
"'  c #E87E89",
"]  c #E46695",
"[  c #E56993",
"{  c #E56A93",
"}  c #E56D91",
"|  c #E047A5",
" . c #E147A5",
".. c #E047A6",
"X. c #E147A6",
"o. c #E24CA3",
"O. c #E148A5",
"+. c #E14AA4",
"@. c #E148A6",
"#. c #E252A0",
"$. c #E253A0",
"%. c #E88385",
"&. c #E98385",
"*. c #E88186",
"=. c #E98186",
"-. c #E88087",
";. c #E88187",
":. c #E98286",
">. c #E98584",
",. c #E98485",
"<. c #E98982",
"1. c #E98883",
"2. c #EA8D80",
"3. c None",
/* pixels */
"3.3.3.3.3.. % C C N . 3.3.3.3.3.",
"3.3.3.. F E X...X...U S o 3.3.3.",
"3.3.@ K X.#.=.4 6 :.Q X.L + 3.3.",
"3.. G ..' r c v v x q -...L O 3.",
"3.A .._ z z f f z z c c ` ..S 3.",
". P #.w z z 1.0 7 ( s x n ^ R . ",
"* u a z f 9 ) | O.[ 8 z x y b - ",
": z z x f 1.! X...#.-.z f f z , ",
"; x f j c n o.[ { +.m g g g v > ",
"& l d z z a 1 5 2.< M z z k p = ",
"  Y W b z f c 1 <.g z z i ~ R X ",
"3.Z X.;.z z g 2 >.z c c %...D 3.",
"3.O G ..;.e h 3 ;.g t *.X.H . 3.",
"3.3.+ G X./ &.} ] ,.$.X.J @ 3.3.",
"3.3.3.. A T  .@.@...I D . 3.3.3.",
"3.3.3.3.3.X # V B $ . 3.3.3.3.3."
};
