/* XPM */
static char *result[] = {
/* columns rows colors chars-per-pixel */
"128 128 75 1 ",
"  c #A6357A",
". c #AA367D",
"X c #A7387A",
"o c #AA3B7A",
"O c #AE4577",
"+ c #AF4877",
"@ c #AC4278",
"# c #B14C76",
"$ c #B55474",
"% c #B95B73",
"& c #BD6470",
"* c #C16D6F",
"= c #C4736D",
"- c #C77A6C",
"; c #C97F6B",
": c #E4B65F",
"> c #E7BB5E",
", c #E8BF5D",
"< c #CC836A",
"1 c #D18E67",
"2 c #D18D68",
"3 c #D49566",
"4 c #D89D64",
"5 c #E19A6F",
"6 c #EA8F7F",
"7 c #EC9E77",
"8 c #EB937D",
"9 c #EC9B79",
"0 c #DCA463",
"q c #DFAC61",
"w c #EEAD6E",
"e c #E3B260",
"r c #EFBA67",
"t c #EFB46B",
"y c #EFB968",
"u c #F0BD66",
"i c #F0B669",
"p c #F0B968",
"a c #EDA474",
"s c #EEAA70",
"d c #EBC65C",
"f c #EECA5B",
"g c #F2CD5D",
"h c #F4D658",
"j c #F1C462",
"k c #F1C860",
"l c #AE3781",
"z c #AF3881",
"x c #B33984",
"c c #B83A87",
"v c #B73A88",
"b c #BB3C8A",
"n c #C13D8E",
"m c #C53F91",
"M c #C93F94",
"N c #C74093",
"B c #CA4095",
"V c #CE4298",
"C c #D4439C",
"Z c #D8449F",
"A c #E3559E",
"S c #E35B9B",
"D c #E6748E",
"F c #E77A8A",
"G c #E87C89",
"H c #E56596",
"J c #E56B93",
"K c #E46198",
"L c #DC46A3",
"P c #E147A6",
"I c #E148A6",
"U c #E251A1",
"Y c #E98385",
"T c #EA8B81",
"R c None",
/* pixels */
"RRRRRRRRRRRRRRRRRRRRRRRRRRRRRRRRRRRRRRRRRRRRRRRRRRRRRRRRR               RRRRRRRRRRRRRRRRRRRRRRRRRRRRRRRRRRRRRRRRRRRRRRRRRRRRRRRR",
"RRRRRRRRRRRRRRRRRRRRRRRRRRRRRRRRRRRRRRRRRRRRRRRRRRR                           RRRRRRRRRRRRRRRRRRRRRRRRRRRRRRRRRRRRRRRRRRRRRRRRRR",
"RRRRRRRRRRRRRRRRRRRRRRRRRRRRRRRRRRRRRRRRRRRRRRR                                   RRRRRRRRRRRRRRRRRRRRRRRRRRRRRRRRRRRRRRRRRRRRRR",
"RRRRRRRRRRRRRRRRRRRRRRRRRRRRRRRRRRRRRRRRRRR           X                              RRRRRRRRRRRRRRRRRRRRRRRRRRRRRRRRRRRRRRRRRRR",
"RRRRRRRRRRRRRRRRRRRRRRRRRRRRRRRRRRRRRRRRR                      .                       RRRRRRRRRRRRRRRRRRRRRRRRRRRRRRRRRRRRRRRRR",
"RRRRRRRRRRRRRRRRRRRRRRRRRRRRRRRRRRRRRR                        .l.. .                      RRRRRRRRRRRRRRRRRRRRRRRRRRRRRRRRRRRRRR",
"RRRRRRRRRRRRRRRRRRRRRRRRRRRRRRRRRRRR                 .vnMCCLLPPPPPPLLCCNnc.                 RRRRRRRRRRRRRRRRRRRRRRRRRRRRRRRRRRRR",
"RRRRRRRRRRRRRRRRRRRRRRRRRRRRRRRRRR               vnCLPPLPPPPPPPPPPPPPPPPPPPLCnv               RRRRRRRRRRRRRRRRRRRRRRRRRRRRRRRRRR",
"RRRRRRRRRRRRRRRRRRRRRRRRRRRRRRRR             .nCLPPPIIIPPPPPPPPPPPPPPPIIPPPPPPIPCb.             RRRRRRRRRRRRRRRRRRRRRRRRRRRRRRRR",
"RRRRRRRRRRRRRRRRRRRRRRRRRRRRRRR           .cMPPPPIPPIIIIIPPPPPPPPPPPPIPPPPPPPPPPPPPCc.           RRRRRRRRRRRRRRRRRRRRRRRRRRRRRRR",
"RRRRRRRRRRRRRRRRRRRRRRRRRRRRR         X .mPPPPPPPPLPPLPPPPPPPPPIIPPPPPPPPPPPPPPPPPPPPLMx           RRRRRRRRRRRRRRRRRRRRRRRRRRRRR",
"RRRRRRRRRRRRRRRRRRRRRRRRRRRR          xBPPPPPPPIPPPPPPPPIIIPPPPPPPPPPPPIPPPPPPPPPPPPPPPPMl           RRRRRRRRRRRRRRRRRRRRRRRRRRR",
"RRRRRRRRRRRRRRRRRRRRRRRRRR          lBPPPPPPIPPIPPPPPPPPPPPPPPPPPPPPIPPPPPPPPPPLPPPPPPPPPPCx l        RRRRRRRRRRRRRRRRRRRRRRRRRR",
"RRRRRRRRRRRRRRRRRRRRRRRRR          NPPPPPPPPPPPPPPPPPPPPPPPPPPPPPPPPIIPPPPPPPPPPPPPPPPPPPPPPMl         RRRRRRRRRRRRRRRRRRRRRRRRR",
"RRRRRRRRRRRRRRRRRRRRRRRR         bLPPPPPPPPPPPPIPPPPIIPIPPPPPPPPPPPPIIPPIPPPPPPPPPPPPPPPPPLPPLbl        RRRRRRRRRRRRRRRRRRRRRRRR",
"RRRRRRRRRRRRRRRRRRRRRR         lCPPPPPPPPPPPPPPIPPPPPPPPPPPPPPPPPPPPIPPPPPIPPPPPPPPPPPPPPPPPPPPLx         RRRRRRRRRRRRRRRRRRRRRR",
"RRRRRRRRRRRRRRRRRRRRR         bLPPPPPPPPPPPPIPPPPPPPPPPPPPPIPPPPLPPPPPPPPPPPPPPPPPPPPPPPIIPPPPPPLm      l  RRRRRRRRRRRRRRRRRRRRR",
"RRRRRRRRRRRRRRRRRRRR         BIIPPPPPPPPPPPPPPPPPPPPPPPPPPPIIPPIPPIIPPPPIPPPPPPPPPPPPPPPPPPPPPPPPLVl        RRRRRRRRRRRRRRRRRRRR",
"RRRRRRRRRRRRRRRRRRR        lLPPPPPPPPIPPPPPPPPPPPPPPPPPPPPIIPPIIIPPIIIPPPPIILPPPPPPPIIPPPPPPPPPPPPILx        RRRRRRRRRRRRRRRRRRR",
"RRRRRRRRRRRRRRRRRR        xLLPIPPPPPIPPPPPIPPPPPPPPPPPPUJYTsijghhhgjisTFKIIIPPPPPPPPIPPPPPPPPPPPPPILLb        RRRRRRRRRRRRRRRRRR",
"RRRRRRRRRRRRRRRRR        bLPPPPPPPPPIPPPIPPPPPPPPUPSYajhhhhhhhhhhhhhhhhhhgtTHIPPPPPPIPPPPPIPPPPPPPLPIIm        RRRRRRRRRRRRRRRRR",
"RRRRRRRRRRRRRRRR        mPPPPIPIPPPPPPPPPPPPIPIIKTjhhhhhhhhhhhhhhhhhhhhhhhhhhk9JIPPIPPIPPIPPPPPIPPPPPILN        RRRRRRRRRRRRRRRR",
"RRRRRRRRRRRRRRR        nLPPPPPPPPPPPPPPPPPPPPUYihhhhhhhhhhhhhhhhhhhhhhhhhhhhhhhhjTUIPPIIPPPPPPPIPPPPPPPPM        RRRRRRRRRRRRRRR",
"RRRRRRRRRRRRRRR       mPPIPPPPPIPPPPPPPPIPPUTghhhhhhhhhhhhhhhhhhhhhhhhhhhhhhhhhhhhh7UPPPPPPIPPIIPPPPPPPLLM       RRRRRRRRRRRRRRR",
"RRRRRRRRRRRRRR      lbPPPPPPPPPPPPPPPPIPPITghhhhhhhhhhhhhhhhhhhhhhhhhhhhhhhhhhhhhhhhhTUIIIIIPPPIPLPPPPPPPPM       RRRRRRRRRRRRRR",
"RRRRRRRRRRRRR       bPPPLPPPPPIPPPPPIIPPDjhhhhhhhhhhhhhhhhhhhhhhhhhhhhhhhhhhhhhhhhhhhhhTIIIPPPPPPPPPPPPPPPPn       RRRRRRRRRRRRR",
"RRRRRRRRRRRR       vLPPPPIPPPPPPPPPPPPUahhhhhhhhhhhhhhhhhhhhhhhhhhhhhhhhhhhhhhhhhhhhhhhhuKPPIPIPPPPPPPPPPPPPc       RRRRRRRRRRRR",
"RRRRRRRRRRRR      zLPLPPIPPIPPPPPPPPPJjhhhhhhhhhhhhhhhhhhhhhhhhhhhhhhhhhhhhhhhhhhhhhhhhhhgYIPPIPPPPPPPPPPPPILx      RRRRRRRRRRRR",
"RRRRRRRRRRR       CPPPPPPPPPPIPPPPPPThhhhhhhhhhhhhhhhhhhhhhhhhhhhhhhhhhhhhhhhhhhhhhhhhhhhhhsUPPIPPIPPPPPPPPPPL.      RRRRRRRRRRR",
"RRRRRRRRRR       NIPPPPPPPPLPPIPPPUihhhhhhhhhhhhhhhhhhhhhhhhhhhhhhhhhhhhhhhhhhhhhhhhhhhhhhhhjUPIPPPPPPPPILPPLPV.      RRRRRRRRRR",
"RRRRRRRRRR      cPPPPPPPPPPPPPPPPKkhhhhhhhhhhhhhhhhhhhhhhhhhhhhhhhhhhhhhhhhhhhhhhhhhhhhhhhhhhgJIPPPPPPPPPPPPPPPb      RRRRRRRRRR",
"RRRRRRRRR      .LPPPPIPPPPPPIPPPJkhhhhhhhhhhhhhhhhhhhhhhhhhhhhhhhhhhhhhhhhhhhhhhhhhhhhhhhhhhhhgJPPPPPPPPPPPPPPPPl      RRRRRRRRR",
"RRRRRRRRR      BPPPPIPPPPPIPPPIHghhhhhhhhhhhhhhhhhhhhhhhhhhhhhhhhhhhhhhhhhhhhhhhhhhhhhhhhhhhhhhgJPIIPPPPPPPPPPPPZ       RRRRRRRR",
"RRRRRRRR      vPPIPPPPPPPPPPPPSghhhhhhhhhhhhhhhhhhhhhhhhhhhhhhhhhhhhhhhhhhhhhhhhhhhhhhhhhhhhhhhhgKIIPPPPPPPPPPPIPn      RRRRRRRR",
"RRRRRRR       LLPIPIPPPPPPPIPUjhhhhhhhhhhhhhhhhhhhhhhhhhhhhhhhhhhhhhhhhhhhhhhhhhhhhhhhhhhhhhhhhhhkUIPPPPPPPPPPPPPL..     RRRRRRR",
"RRRRRRR      nPPPPPPPPPPPPPPPwhhhhhhhhhhhhhhhhhhhhhhhhhhhhhhhhhhhhhhhhhhhhhhhhhhhhhhhhhhhhhhhhhhhhuIPPPPPPPPPPPPPPM  .   RRRRRRR",
"RRRRRR      .LPPIIIPPPPPPPIP8hhhhhhhhhhhhhhhhhhhhhhhhhhhhhhhhhhhhhhhhhhhhhhhhhhhhhhhhhhhhhhhhhhhhhhaPPPPPPPPPPPPPPLx      RRRRRR",
"RRRRRR      mPPPIIIPPPIPPPIJhhhhhhhhhhhhhhhhhhhhhhhhhhhhhhhhhhhhhhhhhhhhhhhhhhhhhhhhhhhhhhhhhhhhhhhhYPPPPPPPPIPPPPPV      RRRRRR",
"RRRRRR     .LPPPPPPPPPPPPPIjhhhhhhhhhhhhhhhhhhhhhhhhhhhhhhhhhhhhhhhhhhhhhhhhhhhhhhhhhhhhhhhhhhhhhhhhhSPPPPPPPPPPPPPPl      RRRRR",
"RRRRR     .mPIPPPPPPIPPPPP7hhhhhhhhhhhhhhhhhhhhhhhhhhhhhhhhhhhhhhhhhhhhhhhhhhhhhhhhhhhhhhhhhhhhhhhhhhiPPPPPPPIPPPPPPB      RRRRR",
"RRRRR     .LPPPPPPPPPPPPLHhhhhhhhhhhhhhhhhhhhhhhhhhhhhhhhhhhhhhhhhhhhhhhhhhhhhhhhhhhhhhhhhhhhhhhhhhhhhTIIIIIPPPPPPPPLl     RRRRR",
"RRRR      bPPPPPPPPPIPPPIjhhhhhhhhhhhhhhhhhhhhhhhhhhhhhhhhhhhhhhhhhhhhhhhhhhhhhhhhhhhhhhhhhhhhhhhhhhhhgUIIIIPPPPPPPIIm      RRRR",
"RRRR      CPPPPPPPPPPPPPYhhhhhhhhhhhhhhhhhhhhhhhhhhhhhhhhhhhhhhhhhhhhhhhhpswighhhhhhhhhhhhhhhhhhhhhhhhhaPPIIPPPPPPPPPL   X  RRRR",
"RRRR     xPPPPPPPPIPPPPIkhhhhhhhhhhhhhhhhhhhhhhhhiYHIIPUGwhhhhhhhhhhhhpGIPPPPPJihhhhhhhhhhhhhhhhhhhhhhhhHPPIPPIPPPPPIPv      RRR",
"RRR      NPPPPPPPIPPPPIThhhhhhhhhhhhhhhhhhhhhhhhDPPPPPPPIIKthhhhhhhhhDIPPPPPPPPPYhhhhhhhhhhhhhhhhhhhhhhhtIIIPPPPPIPPIPV      RRR",
"RRR     XLPPPPPPPPPPPIUhhhhhhhhhhhhhhhhhhhhhhhhgIPPPPPPPIIPIYhhhhhhjSPPPPPPPPPIPJhhhhhhhhhhhhhhhhhhhhhhhhKIIPPIIIPPPPPPl     RRR",
"RRR     xPPPPPIPPPIIPIThhhhhhhhhhhhhhhhhhhhhhhhh7IIPIPPPPPPPIJghhhuUPIPPPPPPPPISkhhhhhhhhhhhhhhhhhhhhhhhhaIIPPPPPPPPIPIc     RRR",
"RR      nPPPPPPPPPPIIUkhhhhhhhhhhhhhhhhhhhhhhhhhhaIPPPPPPPPPIIHkhiIPPPPIPPPPPPSjhhhhhhhhhhhhhhhhhhhhhhhhhgIIPPIPPPPPPPPV      RR",
"RR      4sssssasaaaaathhhhhhhhhhhhhhhhhhhhhhhhhhhhwIPPPPPPPPPPPHsIIIPPPPPPPPISjhhhhhhhhhhhhhhhhhhhhhhhhhhhsaaaaaaaaaaaa7X     RR",
"RR     OhhhhhhhhhhhhhhhhhhhhhhhhhhhhhhhhhhhhhhhhhhhiUIIIPIPPPPPPIIIIPIPPPPIPSjhhhhhhhhhhhhhhhhhhhhhhhhhhhhhhhhhhhhhhhhhh&     RR",
"RR     =hhhhhhhhhhhhhhhhhhhhhhhhhhhhhhhhhhhhhhhhhhhhiUPPPPPPPPPPPPPPPPPPPPPSkhhhhhhhhhhhhhhhhhhhhhhhhhhhhhhhhhhhhhhhhhhh3     RR",
"R      3hhhhhhhhhhhhhhhhhhhhhhhhhhhhhhhhhhhhhhhhhhhhhiUPPPIPIPPPPPPPPPPPPPSkhhhhhhhhhhhhhhhhhhhhhhhhhhhhhhhhhhhhhhhhhhhhd      R",
"R      >hhhhhhhhhhhhhhhhhhhhhhhhhhhhhhhhhhhhhhhtTDHHHHUPPPPPPPIPIPPPPPPPPPAAUAHF7ghhhhhhhhhhhhhhhhhhhhhhhhhhhhhhhhhhhhhhh@     R",
"R     XhhhhhhhhhhhhhhhhhhhhhhhhhhhhhhhhhhhhhhsUPPIIPIPPPIPPPPPPPPPPPPPPPPIIPIIPPIIYkhhhhhhhhhhhhhhhhhhhhhhhhhhhhhhhhhhhhh&     R",
"R     $hhhhhhhhhhhhhhhhhhhhhhhhhhhhhhhhhhhhhGPPPPPPPPPPPIPPPPPPPPPPPPPPPPPPPPPPPIIIUwhhhhhhhhhhhhhhhhhhhhhhhhhhhhhhhhhhhh<     R",
"R    X*hhhhhhhhhhhhhhhhhhhhhhhhhhhhhhhhhhhhDPIPPPPPPPIPPPPPPPPPPPPPPPPPPPPPPPPPPIIIIUThhhhhhhhhhhhhhhhhhhhhhhhhhhhhhhhhhh3     R",
"R .   <hhhhhhhhhhhhhhhhhhhhhhhhhhhhhhhhhhhTIPPPPPPPPPPPPPPPPPPPPPPPPPPPIPPIPPPPPPPIPPIwhhhhhhhhhhhhhhhhhhhhhhhhhhhhhhhhhhq     R",
"R     3hhhhhhhhhhhhhhhhhhhhhhhhhhhhhhhhhhjIIIPIPPPPPPPPPPPPPPPPPPPPPIPPPPPPPIPPPPLPPPPUjhhhhhhhhhhhhhhhhhhhhhhhhhhhhhhhhhe      ",
"      0hhhhhhhhhhhhhhhhhhhhhhhhhhhhhhhhhhHIIPPPPPPPPPPPPIIIIPPIPPPPPPPPPPPPPPPPPPPPPPPPYhhhhhhhhhhhhhhhhhhhhhhhhhhhhhhhhhh    X ",
"      ehhhhhhhhhhhhhhhhhhhhhhhhhhhhhhhhhpIIIPIPIPPPIPPPPPIPIPPPPPPPPPPPPPPIPPPPPPPPPPPPUhhhhhhhhhhhhhhhhhhhhhhhhhhhhhhhhhhX     ",
"      >hhhhhhhhhhhhhhhhhhhhhhhhhhhhhhhhhjIIIPPIIIIIPIPPPPPPPPPPPPPIPPPPPPIPPPIPPLLPPLLLAhhhhhhhhhhhhhhhhhhhhhhhhhhhhhhhhhh@     ",
"      dhhhhhhhhhhhhhhhhhhhhhhhhhhhhhhhhhhjaaaaaaaasTPIPPPPPPPIPPPPPPPIPPPIPPI7iiytttwwthhhhhhhhhhhhhhhhhhhhhhhhhhhhhhhhhhh+X    ",
"      dhhhhhhhhhhhhhhhhhhhhhhhhhhhhhhhhhhhhhhhhhhhtIPPPPPPPPPPPPPIPPPPPIPPPPPUihhhhhhhhhhhhhhhhhhhhhhhhhhhhhhhhhhhhhhhhhhh+X    ",
"      fhhhhhhhhhhhhhhhhhhhhhhhhhhhhhhhhhhhhhhhhhhjUPPPPPPPIPPPPPPPPPPPPPPPPPPPIjhhhhhhhhhhhhhhhhhhhhhhhhhhhhhhhhhhhhhhhhhh#     ",
"      dhhhhhhhhhhhhhhhhhhhhhhhhhhhhhhhhhhhhhhhhhhKPPPPPPPPPPPPPPPPPPPPPPPPPPIPPDhhhhhhhhhhhhhhhhhhhhhhhhhhhhhhhhhhhhhhhhhh#     ",
"      dhhhhhhhhhhhhhhhhhhhhhhhhhhhhhhhhhhhhhhhhh9PPPPPPPPPPPPPPPPPPPPPPPPPPPPIPPihhhhhhhhhhhhhhhhhhhhhhhhhhhhhhhhhhhhhhhhh#     ",
"      dhhhhhhhhhhhhhhhhhhhhhhhhhhhhhhhhhhhhhhhhhKPPPPPPPPPPITPIPPPPU8PPPPPPPPPPPFhhhhhhhhhhhhhhhhhhhhhhhhhhhhhhhhhhhhhhhhh#     ",
"      :hhhhhhhhhhhhhhhhhhhhhhhhhhhhhhhhhhhhhhhhjPPPPPPPPPPI9tPIPPIPUhYPPPPIPPPPPIkhhhhhhhhhhhhhhhhhhhhhhhhhhhhhhhhhhhhhhhh@     ",
"      qhhhhhhhhhhhhhhhhhhhhhhhhhhhhhhhhhhhhhhhh9PIPPPIPPPPThwIIPPPIUhhDPPPLPPPPPPshhhhhhhhhhhhhhhhhhhhhhhhhhhhhhhhhhhhhhhh      ",
"      4hhhhhhhhhhhhhhhhhhhhhhhhhhhhhhhhhhhhhhhhGPPPPPPPPPGhhsPPPPPIIhhkHPPPPPPPPPThhhhhhhhhhhhhhhhhhhhhhhhhhhhhhhhhhhhhhhf      ",
"R     2hhhhhhhhhhhhhhhhhhhhhhhhhhhhhhhhhhhghhhhHPPPPPPIIJghhaPPIPPPPhhhkUIPPPPPPIFhhhhhhhhhhhhhhhhhhhhhhhhhhhhhhhhhhhhhhh:      ",
"R    l-hhhhhhhhhhhhhhhhhhhhhhhhhhhhhhhhhhhhhhhhSIIPPPIPKkhhhaIIIIPPPhhhhpIIPPPPPLDhhhhhhhhhhhhhhhhhhhhhhhhhhhhhhhhhhhhhhh0     R",
"R     &hhhhhhhhhhhhhhhhhhhhhhhhhhhhhhhhhhhhhhhhKPPPPIIAjhhhh7PPIPPPPhhhhhsIIPPPPIFhhhhhhhhhhhhhhhhhhhhhhhhhhhhhhhhhhhhhhh1     R",
"R     #hhhhhhhhhhhhhhhhhhhhhhhhhhhhhhhhhhhhhhhhGPPIPIIihhhhh9PPPPPPPhhhhhhTPPPPPIThhhhhhhhhhhhhhhhhhhhhhhhhhhhhhhhhhhhhhh=     R",
"R      ghhhhhhhhhhhhhhhhhhhhhhhhhhhhhhhhhhhhhhh9PPPPPahhhhhh9PPPPPPPghhhhhhFPPPPIshhhhhhhhhhhhhhhhhhhhhhhhhhhhhhhhhhhhhhh%     R",
"R      :hhhhhhhhhhhhhhhhhhhhhhhhhhhhhhhhhhhhhhhjPPPIThhhhhhhTIIIPPPPghhhhhhhHPPPIhhhhhhhhhhhhhhhhhhhhhhhhhhhhhhhhhhhhhhhhX     R",
"R      3hhhhhhhhhhhhhhhhhhhhhhhhhhhhhhhhhhhhhhhhJPPGhhhhhhhhTPPPPPPPjhhhhhhhkSPPFhhhhhhhhhhhhhhhhhhhhhhhhhhhhhhhhhhhhhhh:      R",
"RR     &hhhhhhhhhhhhhhhhhhhhhhhhhhhhhhhhhhhhhhhhsPJghhhhhhhhTPIPPPPPjhhhhhhhhjKIjhhhhhhhhhhhhhhhhhhhhhhhhhhhhhhhhhhhhhhh1     RR",
"RR     OhhhhhhhhhhhhhhhhhhhhhhhhhhhhhhhhhhhhhhhhhjhhhhhhhhhhTPPPPPPPjhhhhhhhhhhjhhhhhhhhhhhhhhhhhhhhhhhhhhhhhhhhhhhhhhhh%     RR",
"RR      tgghggkkjjjjjjhhhhhhhhhhhhhhhhhhhhhhhhhhhhhhhhhhhhhhTPIPPPPPphhhhhhhhhhhhhhhhhhhhhhhhhhhhhhhhhhhhhguuuuuuuuuyyyw      RR",
"RR      mPPPPPPIIPPPPPjhhhhhhhhhhhhhhhhhhhhhhhhhhhhhhhhhhhhhYPPPPPPPphhhhhhhhhhhhhhhhhhhhhhhhhhhhhhhhhhhhhKPPPPPPPPPPPPV      RR",
"RRR     lPLPPPPPPPPPPPThhhhhhhhhhhhhhhhhhhhhhhhhhhhhhhhhhhhhYPIPPPIPihhhhhhhhhhhhhhhhhhhhhhhhhhhhhhhhhhhhwPPPPPPPPPPPPPc     RRR",
"RRR      LLPPPPPPPPPPPUkhhhhhhhhhhhhhhhhhhhhhhhhhhhhhhhhhhhhGPPPPPPPwhhhhhhhhhhhhhhhhhhhhhhhhhhhhhhhhhhhhJPIPIIPPPPPPPL      RRR",
"RRR      mPPPPPPPPPPPPP9hhhhhhhhhhhhhhhhhhhhhhhhhhhhhhhhhhhhYPPPPPPPshhhhhhhhhhhhhhhhhhhhhhhhhhhhhhhhhhhpIPPPPIPPPPPILV      RRR",
"RRRR     lPPPPPPPPPPIIIUghhhhhhhhhhhhhhhhhhhhhhhhhhhhhhhhhhhGPPPPPPPahhhhhhhhhhhhhhhhhhhhhhhhhhhhhhhhhhhDPIPPPPPPPIPPPx     RRRR",
"RRRR      CPPPPPPPPPPIIP9hhhhhhhhhhhhhhhhhhhhhhhhhhhhhhhhhhhDPPPPPPPahhhhhhhhhhhhhhhhhhhhhhhhhhhhhhhhhhiIPPPIPPPPPIIIL      RRRR",
"RRRR      bPPPPPPPPPPIPPUghhhhhhhhhhhhhhhhhhhhhhhhhhhhhhhhhhDPPPPPPP7hhhhhhhhhhhhhhhhhhhhhhhhhhhhhhhhhhHPIPPPLPPPPPIPm      RRRR",
"RRRRR      LPIIPPPPIPPPPIThhhhhhhhhhhhhhhhhhhhhhhhhhhhhhhhhhDPPPPPPP9hhhhhhhhhhhhhhhhhhhhhhhhhhhhhhhhh7PPPPPPPPPPPPLLl     RRRRR",
"RRRRR      nILPPPPPPPPPPPIjhhhhhhhhhhhhhhhhhhhhhhhhhhhhhhhhhDPPIPPPP9hhhhhhhhhhhhhhhhhhhhhhhhhhhhhhhhkUIPPPPPPPPPPIIB      RRRRR",
"RRRRRR     .LPPPPPPPPPPPIPHhhhhhhhhhhhhhhhhhhhhhhhhhhhhhhhhhJPPIPIPPThhhhhhhhhhhhhhhhhhhhhhhhhhhhhhhhDIIPPPPPPPPPPPLl      RRRRR",
"RRRRRR      nPPPPPPIPPPPIPIThhhhhhhhhhhhhhhhhhhhhhhhhhhhhhhhJPPPPPPPThhhhhhhhhhhhhhhhhhhhhhhhhhhhhhh9PPIPPPPPPPPPPPB      RRRRRR",
"RRRRRR      XLPPPPIPPIPPPPIIthhhhhhhhhhhhhhhhhhhhhhhhhhhhhhhJIPPPPPPThhhhhhhhhhhhhhhhhhhhhhhhhhhhhhpPPPPPPPPPPPPPPLl      RRRRRR",
"RRRRRRR      bPPPPPPPPPIPIPPUkhhhhhhhhhhhhhhhhhhhhhhhhhhhhhhHPPPPPPPYhhhhhhhhhhhhhhhhhhhhhhhhhhhhhkSPPPPPPIPPPPPPLM      RRRRRRR",
"RRRRRRR      .ZPPPPPPPPPPPPPIKghhhhhhhhhhhhhhhhhhhhhhhhhhhhhHIPPPPIPGhhhhhhhhhhhhhhhhhhhhhhhhhhhhhHPPPPPPPPIPPPPPL       RRRRRRR",
"RRRRRRRR      vLPPPPPPIPPPPPIPDhhhhhhhhhhhhhhhhhhhhhhhhhhhhhHPIPPPPPFhhhhhhhhhhhhhhhhhhhhhhhhhhhhFPPIIPPIPPPPPPPIc      RRRRRRRR",
"RRRRRRRRR      NPPPPPPPPPPPPIIIYhhhhhhhhhhhhhhhhhhhhhhhhhhhhSPPIPPPPDhhhhhhhhhhhhhhhhhhhhhhhhhhhTPIIPLPPPPPPPPPPV       RRRRRRRR",
"RRRRRRRRR       ZPPPPPPPPPPPPPPPGhhhhhhhhhhhhhhhhhhhhhhhhhhhKIIIPPPPDhhhhhhhhhhhhhhhhhhhhhhhhhhTLIPPPPPPPPPPLIPLl      RRRRRRRRR",
"RRRRRRRRRR.     vPPPPIPPPPPPPPPPPDghhhhhhhhhhhhhhhhhhhhhhhhhUPIIPPPPJhhhhhhhhhhhhhhhhhhhhhhhhhYPPPPPPPPPPIPPPPPc      RRRRRRRRRR",
"RRRRRRRRRR       nPPPIPPPPPPPPIPIIHkhhhhhhhhhhhhhhhhhhhhhhhhUIIIPPPPJhhhhhhhhhhhhhhhhhhhhhhhjHPPIPPPPPPPPPIPPLB       RRRRRRRRRR",
"RRRRRRRRRRR       VPPIPPPPPPPPPIIIIUthhhhhhhhhhhhhhhhhhhhhhhUIIIPPPLJhhhhhhhhhhhhhhhhhhhhhhsUIPPPPPPPPPPPPPPPL.      RRRRRRRRRRR",
"RRRRRRRRRRRR      .ZIIPPPPPPPPPIPPPIIYkhhhhhhhhhhhhhhhhhhhhhUPPPPPPPHhhhhhhhhhhhhhhhhhhhhhFIPPPPPPPPPPPPPPPPLl X    RRRRRRRRRRRR",
"RRRRRRRRRRRR       .PIPPPPPPPPPPPPPPPISwhhhhhhhhhhhhhhhhhhhhIPPPPPPPHhhhhhhhhhhhhhhhhhhhwUPIPPPPPPPPPPPIPPPPx       RRRRRRRRRRRR",
"RRRRRRRRRRRRR       xPPPPPPPPPPPIPPPPPPPGjhhhhhhhhhhhhhhhhhhPIPPPPPPKhhhhhhhhhhhhhhhhhjDIPPPPPPPPPPPPPPPIPLb       RRRRRRRRRRRRR",
"RRRRRRRRRRRRRR       cPPPPPPPPPPPPPPPPPPPU8hhhhhhhhhhhhhhhhhPPPPPIIPShhhhhhhhhhhhhhhhTIIPPPPPPPPPPPPPPPIILm       RRRRRRRRRRRRRR",
"RRRRRRRRRRRRRRR       bLPPPPPPPPPPPPPPIPPPPS7hhhhhhhhhhhhhhhPPPPPPPPShhhhhhhhhhhhhh8UPPPPPPPPIPPPPPPPPPPPm       RRRRRRRRRRRRRRR",
"RRRRRRRRRRRRRRRR       bPPPPPPPPPPPPPPPIPPPPPS8hhhhhhhhhhhhkIPPPPPLPShhhhhhhhhhhkTUPPPPPIPPPPPPPPPIPPPPPm        RRRRRRRRRRRRRRR",
"RRRRRRRRRRRRRRRR        bLPPPPPPPPPPPPPPPPPPPPPIGsghhhhhhhhkPPPIPPPPAhhhhhhhhhsDIIIPPPPPIPPPPPPPPPPPPPPn        RRRRRRRRRRRRRRRR",
"RRRRRRRRRRRRRRRRR        vLPPPPPPPPPPPIPPPPPPPPPPIUDTighhhhjPPPPPPPPAhhhhhu9DIPPIIPPPPPPPPPPIPPIPPPPPPc        RRRRRRRRRRRRRRRRR",
"RRRRRRRRRRRRRRRRRR        lLPLPPPPPPPPIPPIPLPPPPPPPPPPPUJDGGPIPPPPPPPYGDHIPPPPPPPPPPPPPPPPPPPPPPPPPPLv        RRRRRRRRRRRRRRRRRR",
"RRRRRRRRRRRRRRRRRRR     X  XCPPPIPPPPPPPPPPPPPPPPPPPPPPPIPIIPPPPPPPPPPPPPPPPPPPPPPIPPPPPIPPPPIPPPPPC.        RRRRRRRRRRRRRRRRRRR",
"RRRRRRRRRRRRRRRRRRRR         NPPIIPPPPPPPPPIPPPPPPPPPPPPPPPPPPPPPPPPPPPPPPPPPPPPIPPPPPPIPPPPLIPPPPM.        RRRRRRRRRRRRRRRRRRRR",
"RRRRRRRRRRRRRRRRRRRRR        XxLPPPPIPIPIPPPPPPPPPPPPPPPPPPPPPPPPPPPPPPPIPPPPPPPPPPPPPPPPPPPPPPIPc.        RRRRRRRRRRRRRRRRRRRRR",
"RRRRRRRRRRRRRRRRRRRRRRR        .BPPIPPPPLPPPPPPPPPPPPPPPPPPPPPPPPPLPPIPPPPPPPPPIIPPPPPPPPPPPLIPVl         RRRRRRRRRRRRRRRRRRRRRR",
"RRRRRRRRRRRRRRRRRRRRRRRR         vCPPPPPPPPPPPPPPPPPPPPPPPPPPPPPPPPPPPPPPPPPIPPPPPPPPPPPPIPPLLc         RRRRRRRRRRRRRRRRRRRRRRRR",
"RRRRRRRRRRRRRRRRRRRRRRRRR          nLPPPPIPPPPPPPPPPPPPPPPPPPPPPPPPPPPPPPPPIIPPPPPPPPPPPPIPPm          RRRRRRRRRRRRRRRRRRRRRRRRR",
"RRRRRRRRRRRRRRRRRRRRRRRRRR          .mLPPPPPPPPPPPPPPPPPPPPPPPPPPPPPPPIPPPPPPPPPPIPPPPPPPLB.          RRRRRRRRRRRRRRRRRRRRRRRRRR",
"RRRRRRRRRRRRRRRRRRRRRRRRRRRR          .mLPPPPPPPPPPPPPPPPPPPPPPPPPPPPPPPPPPPPPPPPPPPPPILMl          RRRRRRRRRRRRRRRRRRRRRRRRRRRR",
"RRRRRRRRRRRRRRRRRRRRRRRRRRRRR           .bCPPPPPPPPPPPPPPPPPPPPPPPPPPPPPPPPPPIPPPPPPPCm.           RRRRRRRRRRRRRRRRRRRRRRRRRRRRR",
"RRRRRRRRRRRRRRRRRRRRRRRRRRRRRRR         .  xmLPPIIPPPPIIPPPPPPPPPPPPPPPPPPPPPPPPLPLMv            RRRRRRRRRRRRRRRRRRRRRRRRRRRRRRR",
"RRRRRRRRRRRRRRRRRRRRRRRRRRRRRRRRR.           .xmLILPPPPPPPPPPPPLPPPPPPPPPPPPPPPLMv.             RRRRRRRRRRRRRRRRRRRRRRRRRRRRRRRR",
"RRRRRRRRRRRRRRRRRRRRRRRRRRRRRRRRRR              llvNVLLPIIPLPPLLPLPLIPPLPPLCMbl               RRRRRRRRRRRRRRRRRRRRRRRRRRRRRRRRRR",
"RRRRRRRRRRRRRRRRRRRRRRRRRRRRRRRRRRRR    X             zbbMVLLLLLLLLLCVMmcx. .               RRRRRRRRRRRRRRRRRRRRRRRRRRRRRRRRRRRR",
"RRRRRRRRRRRRRRRRRRRRRRRRRRRRRRRRRRRRRRR                l                .                 RRRRRRRRRRRRRRRRRRRRRRRRRRRRRRRRRRRRRR",
"RRRRRRRRRRRRRRRRRRRRRRRRRRRRRRRRRRRRRRRRR         l                                    RRRRRRRRRRRRRRRRRRRRRRRRRRRRRRRRRRRRRRRRR",
"RRRRRRRRRRRRRRRRRRRRRRRRRRRRRRRRRRRRRRRRRRRR                                        RRRRRRRRRRRRRRRRRRRRRRRRRRRRRRRRRRRRRRRRRRRR",
"RRRRRRRRRRRRRRRRRRRRRRRRRRRRRRRRRRRRRRRRRRRRRRR                                  RRRRRRRRRRRRRRRRRRRRRRRRRRRRRRRRRRRRRRRRRRRRRRR",
"RRRRRRRRRRRRRRRRRRRRRRRRRRRRRRRRRRRRRRRRRRRRRRRRRRR                          RRRRRRRRRRRRRRRRRRRRRRRRRRRRRRRRRRRRRRRRRRRRRRRRRRR",
"RRRRRRRRRRRRRRRRRRRRRRRRRRRRRRRRRRRRRRRRRRRRRRRRRRRRRRRRRR .          RRRRRRRRRRRRRRRRRRRRRRRRRRRRRRRRRRRRRRRRRRRRRRRRRRRRRRRRRR"
};
