/* XPM */
static char *result[] = {
/* columns rows colors chars-per-pixel */
"64 64 64 1 ",
"  c #A6357A",
". c #AA367D",
"X c #A93B79",
"o c #AC4178",
"O c #B75973",
"+ c #B95C72",
"@ c #C06B6F",
"# c #C2706E",
"$ c #C87B6C",
"% c #E8BD5E",
"& c #CA806A",
"* c #D28F68",
"= c #D59666",
"- c #D79B65",
"; c #EA8F7F",
": c #EC9D77",
"> c #EB937D",
", c #EC9A79",
"< c #E0AC61",
"1 c #EFAF6E",
"2 c #E2B161",
"3 c #EEBC63",
"4 c #EFB36C",
"5 c #EFB968",
"6 c #F0BD66",
"7 c #F0B66A",
"8 c #F0B968",
"9 c #EDA473",
"0 c #EEA971",
"q c #EAC25C",
"w c #EECA5B",
"e c #F2CC5D",
"r c #F4D658",
"t c #F1C363",
"y c #F2C861",
"u c #AE3780",
"i c #AF3881",
"p c #B23983",
"a c #B83B87",
"s c #B73A88",
"d c #BC3C8B",
"f c #C03D8E",
"g c #C43E91",
"h c #C93F94",
"j c #CB4096",
"k c #CE4299",
"l c #D4439C",
"z c #E3569E",
"x c #E35C9B",
"c c #E87F87",
"v c #E7748E",
"b c #E77A8A",
"n c #E87D89",
"m c #E56496",
"M c #E56B93",
"N c #E46098",
"B c #E77190",
"V c #DE46A4",
"C c #E147A6",
"Z c #E149A5",
"A c #E251A1",
"S c #E88485",
"D c #EA8B81",
"F c None",
/* pixels */
"FFFFFFFFFFFFFFFFFFFFFFFFFFF    .      FFFFFFFFFFFFFFFFFFFFFFFFFF",
"FFFFFFFFFFFFFFFFFFFFFF                    FFFFFFFFFFFFFFFFFFFFFF",
"FFFFFFFFFFFFFFFFFFFF.          .            FFFFFFFFFFFFFFFFFFFF",
"FFFFFFFFFFFFFFFFFF. .  ..sgklVCZCCVlkga.       FFFFFFFFFFFFFFFFF",
"FFFFFFFFFFFFFFFF   ...flVCCCCCCCCCCCCCCClgu     FFFFFFFFFFFFFFFF",
"FFFFFFFFFFFFFF     .hCCCCCCCCCCCCCCCCCCCCCVkp     FFFFFFFFFFFFFF",
"FFFFFFFFFFFFF    .lCCCCCCCCCCCCCCCCCCCCCCCCCClp    FFFFFFFFFFFFF",
"FFFFFFFFFFFF   .gCCCCCCCCCCCCCCCCCCCCCCCCCCCCCCj.    FFFFFFFFFFF",
"FFFFFFFFFF    ilCCCCCCCCCCCCZZZZCCCCCCCCZCCCCCCCVp    FFFFFFFFFF",
"FFFFFFFFF    dCCCCCCCCCCCCCCxvc;>DbmZCCCCCZCCCCCVVd    FFFFFFFFF",
"FFFFFFFF    fCCCCCCCCCCCx;7rrrrrrrrrrtDMCCCCCCCCCCVg    FFFFFFFF",
"FFFFFFFF   fCCCCCCCCCCn7rrrrrrrrrrrrrrrrtSZCCCCCCCCVj    FFFFFFF",
"FFFFFFF   fCCCCCCCCCBqrrrrrrrrrrrrrrrrrrrrynCCCCVCCCCj   FFFFFFF",
"FFFFFF   aCCCCCCZCz9rrrrrrrrrrrrrrrrrrrrrrrr7ACCCCCCCCd   FFFFFF",
"FFFFF   iVCCCCCCCmtrrrrrrrrrrrrrrrrrrrrrrrrrryBCCCCCCCVi   FFFFF",
"FFFFF  .lCCCCCCCvrrrrrrrrrrrrrrrrrrrrrrrrrrrrrrbCCCCVCVV.  FFFFF",
"FFFF   gCCCCCCCvrrrrrrrrrrrrrrrrrrrrrrrrrrrrrrrrbCCCCCCCj.  FFFF",
"FFFF  .VCCCCCCNrrrrrrrrrrrrrrrrrrrrrrrrrrrrrrrrrrmCCCCCCVi  FFFF",
"FFF   kCCCCCCAtrrrrrrrrrrrrrrrrrrrrrrrrrrrrrrrrrryACCCCCCk.  FFF",
"FFF  iCCCCCCC9rrrrrrrrrrrrrrrrrrrrrrrrrrrrrrrrrrrr7CCZCCCCi. FFF",
"FF   jVCCCCCMrrrrrrrrrrrrrrrrrrrrrrrrrrrrrrrrrrrrrrSCCCCCCkX  FF",
"FF  .VCCCCCC6rrrrrrrrrrre9;>7rrrrrr8SbS7rrrrrrrrrrryACCCCCV.  FF",
"FF  dCCCCCCnrrrrrrrrrrrrACCCZM6rrrnCCCCZ0rrrrrrrrrrrDCCCCCCd   F",
"F   kCCCCCCerrrrrrrrrrrr,ZCCCCA4emCCCCZBrrrrrrrrrrrryCCCCCCl   F",
"F  X%66666qrrrrrrrrrrrrrr:ZCCCCANCCCCCBrrrrrrrrrrrrrrt556855o  F",
"F  +rrrrrrrrrrrrrrrrrrrrrr0ZCCCCCCCCCvrrrrrrrrrrrrrrrrrrrrrr#  F",
"F. $rrrrrrrrrrrrrrrrrre;xxxCCZCCCCCCCZCxS6rrrrrrrrrrrrrrrrrr=  F",
"   -rrrrrrrrrrrrrrrrr6AZCCCCCCCCCCCCCCCCCZ,rrrrrrrrrrrrrrrrr2   ",
"   %rrrrrrrrrrrrrrrrexZZCCCCCZZCCCCZCZZZCCC0rrrrrrrrrrrrrrrrw   ",
"   qrrrrrrrrrrrrrrrr;CCCCCZCCCCCCCCZCCCCCCCzrrrrrrrrrrrrrrrrr   ",
"   wrrrrrrrrrrrrrrrr0vvvvBZCCCCCCZCZCCxScnnDrrrrrrrrrrrrrrrrrX  ",
"   errrrrrrrrrrrrrrrrrrrrmCCCCCCCCCCCCC9rrrrrrrrrrrrrrrrrrrrro  ",
"   wrrrrrrrrrrrrrrrrrrrrDCCCZZCCZCCCCCCAerrrrrrrrrrrrrrrrrrrro .",
"   wrrrrrrrrrrrrrrrrrrreACCCZAvCZZDCCCCC,rrrrrrrrrrrrrrrrrrrro  ",
"  .qrrrrrrrrrrrrrrrrrrr1CCCCAynCCZrnCCCCBrrrrrrrrrrrrrrrrrrrr   ",
"  u2rrrrrrrrrrrrrrrrrrr,CCZZ8rvCCCrrmCCCNrrrrrrrrrrrrrrrrrrrq   ",
"   =rrrrrrrrrrrrrrrrrrr9CCC0rrvCCCrrexZCmrrrrrrrrrrrrrrrrrrr<   ",
"F  $rrrrrrrrrrrrrrrrrrrtCCDrrrBCCCrrr6ACSrrrrrrrrrrrrrrrrrrr*  F",
"F  OrrrrrrrrrrrrrrrrrrrrMSrrrrMCCCerrr1Z6rrrrrrrrrrrrrrrrrrr@  F",
"F  .yrereeyrrrrrrrrrrrrrrrrrrrmVCCerrrrrrrrrrrrrrrrrrryyeyyyX  F",
"F.  jCCVCZC7rrrrrrrrrrrrrrrrrrmCCCtrrrrrrrrrrrrrrrrreZCCVCCl   F",
"FF  dVCCCCCSrrrrrrrrrrrrrrrrrrmCCCtrrrrrrrrrrrrrrrrr>CCCCCCd  FF",
"FF. .VCCCCZZtrrrrrrrrrrrrrrrrrNCZC6rrrrrrrrrrrrrrrrrACCCCCC.  FF",
"FF   jCCCCZCSrrrrrrrrrrrrrrrrrxVCC8rrrrrrrrrrrrrrrrDCCCCCCh.  FF",
"FFF  .VCCZCZV4rrrrrrrrrrrrrrrrxCCC7rrrrrrrrrrrrrrr5CCCCCVCp  FFF",
"FFF   jCCCCCVxerrrrrrrrrrrrrrrxCCC1rrrrrrrrrrrrrrexCCCCCCj   FFF",
"FFFF  .VCCCCZZBrrrrrrrrrrrrrrrzCCC0rrrrrrrrrrrrrrvCCCCCCVp  FFFF",
"FFFF   jCCZZZZVDrrrrrrrrrrrrrrzCCC0rrrrrrrrrrrrrDCVCCCCCg   FFFF",
"FFFFF   lCCCCCCCSrrrrrrrrrrrrrACCC9rrrrrrrrrrrrDCCCCCCCl   FFFFF",
"FFFFF   .VCCCCVCCverrrrrrrrrrrACCC9rrrrrrrrrryvCCCCCCCVp   FFFFF",
"FFFFFF   sVCCCCCCCz1rrrrrrrrrrZCCC:rrrrrrrrr0xCCCCCCCCd   FFFFFF",
"FFFFFFF   dCCCZCCCCCbyrrrrrrrrCCCC,rrrrrrrtvCCCCCCCCCd   FFFFFFF",
"FFFFFFFF   dCCCCCCCCCZSyrrrrrrCCCC,rrrrrtcCCCCCCCCCCj   FFFFFFFF",
"FFFFFFFF.   dCCCCCZCCCCCM,6rreCCCC>rrt,MCCCCCCCCCCCd    FFFFFFFF",
"FFFFFFFFF    pVVCCCCCCCCCCCZxxCCCCANACCCCCCCCCCCCVd    FFFFFFFFF",
"FFFFFFFFFF .  uVCCCCCCCCCCCCCCCCCCCCCCCCCCCCCCCVlp    FFFFFFFFFF",
"FFFFFFFFFFFF    gVCCCCCCCCCZCCCCCCCCCCCCCCCCCCVg.   FFFFFFFFFFFF",
"FFFFFFFFFFFFF.  X.jVVCCCCCCCCCCCCCCCZCCCCCCVCki .  FFFFFFFFFFFFF",
"FFFFFFFFFFFFFF     ijVCCCCVZCCCVCCVCCCCCVCVjp     FFFFFFFFFFFFFF",
"FFFFFFFFFFFFFFFF     .dkVCCCCCCVCCCCCZCVld.     FFFFFFFFFFFFFFFF",
"FFFFFFFFFFFFFFFFFF      .pfjkVVVVVVlkfp.      FFFFFFFFFFFFFFFFFF",
"FFFFFFFFFFFFFFFFFFFF    .                   FFFFFFFFFFFFFFFFFFFF",
"FFFFFFFFFFFFFFFFFFFFFFF .                FFFFFFFFFFFFFFFFFFFFFFF",
"FFFFFFFFFFFFFFFFFFFFFFFFFFF          FFFFFFFFFFFFFFFFFFFFFFFFFFF"
};
